<svg xmlns="http://www.w3.org/2000/svg" width="79" height="79" viewBox="0 0 79 79" fill="none"> <circle opacity="0.3" cx="44.5" cy="41.5" r="28.5" fill="#00AB97"/> <path d="M43.3332 20H6.66678C4.64255 20.0023 3.00235 21.6425 3 23.6668V47.1334C3.00235 49.1573 4.64255 50.7975 6.66678 50.7999H28.4936C28.55 50.8734 28.608 50.9365 28.6668 51.0023V56.6668C28.6664 57.0716 28.9944 57.4003 29.3996 57.4006C29.4933 57.4006 29.5859 57.3828 29.6729 57.3479L33.0667 55.9897L36.4606 57.3479C36.8365 57.4986 37.2632 57.316 37.4139 56.94C37.4489 56.8531 37.4666 56.7604 37.4666 56.6668V51.0023C37.5261 50.9358 37.5841 50.869 37.6399 50.7999H43.3332C45.3575 50.7975 46.9977 49.1573 47 47.1334V23.6668C46.9977 21.6425 45.3575 20.0023 43.3332 20ZM36.6717 49.6518C36.5341 49.8512 36.3783 50.0378 36.2068 50.209C34.5172 51.9432 31.7417 51.9792 30.0075 50.2896C29.9773 50.2601 29.9478 50.2302 29.9186 50.2C29.7484 50.0301 29.5943 49.8448 29.458 49.6464C28.0676 47.6534 28.5563 44.9108 30.5493 43.5204C32.5424 42.1299 35.285 42.6187 36.6754 44.6117C37.7318 46.126 37.7302 48.1388 36.6717 49.6518ZM38.888 46.3999C38.8762 46.3069 38.8564 46.2166 38.8403 46.125C38.8279 46.0518 38.8181 45.9783 38.8037 45.9125C38.7772 45.7876 38.7433 45.6668 38.709 45.5456C38.6929 45.4879 38.6805 45.4284 38.662 45.371C38.607 45.1958 38.5439 45.0236 38.4727 44.8578C38.4677 44.8453 38.461 44.8336 38.4559 44.8212C38.3885 44.6641 38.3153 44.511 38.2361 44.3613C38.2045 44.3035 38.1679 44.2478 38.1347 44.1904C38.0763 44.0907 38.0182 43.9903 37.9544 43.897C37.9124 43.8339 37.8658 43.7738 37.8218 43.7124C37.76 43.6274 37.6986 43.5422 37.6325 43.4603C37.5818 43.3978 37.5284 43.3391 37.4754 43.279C37.4096 43.2058 37.3421 43.1273 37.2716 43.0547C37.2152 42.996 37.1558 42.9403 37.0964 42.8839C37.0229 42.8154 36.9497 42.7479 36.8765 42.6835C36.8141 42.6301 36.7496 42.5781 36.6841 42.5274C36.6066 42.4656 36.5274 42.4062 36.4465 42.3491C36.3793 42.3015 36.3109 42.2551 36.2414 42.2105C36.1578 42.1561 36.0718 42.1051 35.9852 42.0551C35.912 42.0131 35.8389 41.9728 35.769 41.9349C35.6787 41.8879 35.5871 41.8446 35.4948 41.8026C35.4216 41.769 35.3481 41.7345 35.2749 41.7036C35.1772 41.664 35.0775 41.6304 34.9778 41.5952C34.9046 41.5696 34.8311 41.5424 34.7526 41.522C34.6465 41.4897 34.5377 41.4639 34.4293 41.4384C34.3558 41.4206 34.2826 41.4008 34.2094 41.386C34.0876 41.3618 33.962 41.3457 33.8375 41.3289C33.7744 41.3209 33.7122 41.3085 33.6481 41.3024C33.2644 41.2635 32.8777 41.2635 32.494 41.3024C32.4302 41.3085 32.3678 41.3209 32.3047 41.3289C32.1801 41.3457 32.0546 41.3618 31.9331 41.386C31.8596 41.4008 31.7864 41.4206 31.7129 41.4384C31.6044 41.4639 31.493 41.4894 31.3896 41.522C31.3164 41.5445 31.2429 41.5717 31.1643 41.5952C31.0646 41.6297 30.9649 41.664 30.8676 41.7036C30.7941 41.7345 30.7209 41.769 30.6474 41.8026C30.5551 41.8446 30.4634 41.8879 30.3731 41.9349C30.2999 41.9728 30.2264 42.0131 30.1569 42.0551C30.0703 42.1047 29.9847 42.1561 29.9011 42.2105C29.8313 42.2551 29.7632 42.3015 29.6957 42.3491C29.6151 42.4062 29.5359 42.4656 29.458 42.5274C29.3929 42.5777 29.3284 42.6301 29.266 42.6835C29.1925 42.7479 29.1193 42.8154 29.0458 42.8839C28.9864 42.9403 28.9273 42.996 28.8705 43.0547C28.7974 43.1279 28.7329 43.2011 28.6668 43.279C28.6141 43.3391 28.5604 43.3978 28.5097 43.4603C28.4439 43.5422 28.3821 43.6274 28.3207 43.7124C28.2767 43.7738 28.2297 43.8339 28.1877 43.897C28.124 43.9933 28.0662 44.0937 28.0075 44.1904C27.9746 44.2478 27.938 44.3035 27.9064 44.3613C27.8255 44.508 27.7523 44.6641 27.6862 44.8212C27.6812 44.8336 27.6745 44.8453 27.6694 44.8578C27.5963 45.0249 27.5352 45.1975 27.4801 45.371C27.462 45.4284 27.4496 45.4879 27.4334 45.5456C27.3989 45.6668 27.3653 45.7876 27.3388 45.9125C27.324 45.982 27.3146 46.0545 27.3022 46.125C27.2861 46.2166 27.2663 46.3069 27.2545 46.3999H7.39993V24.3999H42.6001V46.3999H38.888ZM36 55.5835L33.3396 54.5187C33.1644 54.4492 32.969 54.4492 32.7938 54.5187L30.1334 55.5835V52.2101C30.1495 52.2198 30.168 52.2256 30.1848 52.2353C31.9744 53.2555 34.1701 53.2538 35.958 52.2309C35.9715 52.2225 35.9869 52.2185 36 52.2101V55.5835ZM45.5334 47.1334C45.5334 48.3483 44.5484 49.3332 43.3332 49.3332H38.506C38.5536 49.2144 38.5922 49.0922 38.6328 48.9703C38.6453 48.9321 38.6604 48.8972 38.6725 48.8582C38.7473 48.6111 38.8057 48.359 38.8477 48.1042C38.8571 48.0462 38.8651 47.9884 38.8725 47.9304C38.8725 47.9092 38.8792 47.8877 38.8819 47.8666H42.6001C43.4101 47.8666 44.0667 47.21 44.0667 46.3999V24.3999C44.0667 23.5899 43.4101 22.9333 42.6001 22.9333H7.39993C6.5899 22.9333 5.93329 23.5899 5.93329 24.3999V46.3999C5.93329 47.21 6.5899 47.8666 7.39993 47.8666H27.2515C27.2515 47.8881 27.2572 47.9085 27.2602 47.9297C27.2683 47.9884 27.2763 48.0465 27.2857 48.1053C27.3274 48.359 27.3858 48.6098 27.4603 48.8562C27.4727 48.8965 27.4888 48.9354 27.5023 48.975C27.5419 49.0952 27.5798 49.2161 27.6275 49.3336H6.66678C5.45157 49.3336 4.46664 48.3486 4.46664 47.1334V23.6668C4.46664 22.4516 5.45157 21.4666 6.66678 21.4666H43.3332C44.5484 21.4666 45.5334 22.4516 45.5334 23.6668V47.1334Z" fill="#002337"/> <path d="M33.0667 43.4666C31.0415 43.4666 29.3999 45.1082 29.3999 47.1334C29.3999 49.1583 31.0415 50.7999 33.0667 50.7999C35.0916 50.7999 36.7332 49.1583 36.7332 47.1334C36.7308 45.1092 35.0906 43.469 33.0667 43.4666ZM33.0667 49.3332C31.8515 49.3332 30.8666 48.3483 30.8666 47.1334C30.8666 45.9182 31.8515 44.9333 33.0667 44.9333C34.2816 44.9333 35.2665 45.9182 35.2665 47.1334C35.2665 48.3483 34.2816 49.3332 33.0667 49.3332Z" fill="#002337"/> <path d="M17.6668 28.8002H32.3332V30.2668H17.6668V28.8002Z" fill="#002337"/> <path d="M13.2668 34.6668H36.7335V36.1334H13.2668V34.6668Z" fill="#002337"/> </svg>