<svg xmlns="http://www.w3.org/2000/svg" width="79" height="79" viewBox="0 0 79 79" fill="none"> <circle opacity="0.3" cx="44.5" cy="41.5" r="28.5" fill="#00AB97"/> <path d="M20.4706 17C10.8373 17 3 25.0748 3 35C3 44.9252 10.8373 53 20.4706 53C30.1039 53 37.9412 44.9252 37.9412 35C37.9412 25.0748 30.1039 17 20.4706 17ZM20.4706 51.8C11.4796 51.8 4.16471 44.2634 4.16471 35C4.16471 25.7366 11.4796 18.2 20.4706 18.2C29.4615 18.2 36.7765 25.7366 36.7765 35C36.7765 44.2634 29.4615 51.8 20.4706 51.8Z" fill="#002337" stroke="#002337"/> <path d="M20.4706 20.6C20.1491 20.6 19.8882 20.8682 19.8882 21.2V35H11.1529C10.8315 35 10.5706 35.2682 10.5706 35.6C10.5706 35.9318 10.8315 36.2 11.1529 36.2H20.4706C20.7921 36.2 21.0529 35.9318 21.0529 35.6V21.2C21.0529 20.8682 20.7921 20.6 20.4706 20.6Z" fill="#002337" stroke="#002337"/> </svg>