<svg xmlns="http://www.w3.org/2000/svg" width="79" height="79" viewBox="0 0 79 79" fill="none"> <rect width="79" height="79" fill="white"/> <circle opacity="0.3" cx="50.5" cy="41.5" r="28.5" fill="#00AB97"/> <path d="M27.6552 23.2677C27.2173 23.2677 26.8619 23.6231 26.8619 24.061C26.8619 24.4989 27.2173 24.8543 27.6552 24.8543C28.0931 24.8543 28.4485 24.4989 28.4485 24.061C28.4485 23.6231 28.0931 23.2677 27.6552 23.2677Z" fill="#002337"/> <path d="M35.6028 36.5305C34.7021 33.3003 30.776 28.2292 31.2635 19.3445C31.2755 19.127 31.1974 18.9141 31.0475 18.7557C30.8977 18.5975 30.6893 18.5078 30.4714 18.5078H12.146C11.9281 18.5078 11.7197 18.5975 11.5699 18.7557C11.4201 18.914 11.342 19.1269 11.3539 19.3445C11.8391 28.1882 7.9248 33.3113 7.00893 36.5239C5.3529 42.3158 8.05443 49.7967 11.8397 54.692C11.99 54.8862 12.2217 55 12.4673 55H30.1509C30.3964 55 30.6282 54.8862 30.7784 54.692C34.3812 50.0341 37.2028 42.2469 35.6028 36.5305ZM10.872 31.5318C12.3595 27.7644 13.0644 23.9208 12.9712 20.0945H29.6461C29.5529 23.9193 30.2576 27.7621 31.7445 31.53C31.8075 31.6896 31.8735 31.8506 31.9418 32.0133C28.6778 33.5596 25.0181 34.374 21.3087 34.374C17.5994 34.374 13.9394 33.5596 10.6754 32.0133C10.743 31.8521 10.8087 31.692 10.872 31.5318ZM20.5154 53.4134H12.8605C8.77436 47.951 7.55496 41.7524 8.33645 37.784C12.6325 39.4334 16.7025 42.987 20.5154 45.8748V53.4134ZM8.765 36.2496C9.03234 35.5103 9.36521 34.8218 9.73719 34.0539C9.8312 33.8599 9.92679 33.6622 10.0233 33.4598C13.492 35.0978 17.3756 35.9606 21.3087 35.9606C25.2418 35.9606 29.1253 35.0978 32.5938 33.4599C32.6901 33.6617 32.7853 33.8587 32.8789 34.0519C33.2513 34.821 33.5844 35.5106 33.8489 36.2507C29.3145 37.9575 25.0414 41.6453 21.3087 44.486C17.56 41.6334 13.3007 37.9559 8.765 36.2496ZM29.7563 53.4134H22.102V45.8748C25.9419 42.9661 29.9869 39.4362 34.2683 37.7888C35.2116 42.8023 32.7519 49.3651 29.7563 53.4134Z" fill="#002337"/> <path d="M29.5943 30.2439C29.2474 29.1844 28.956 28.1111 28.7282 27.0537C28.636 26.6255 28.2138 26.3528 27.7857 26.4453C27.3574 26.5375 27.085 26.9595 27.1772 27.3878C27.4166 28.499 27.7225 29.626 28.0865 30.7377C28.2226 31.1534 28.6701 31.3813 29.0873 31.2447C29.5038 31.1083 29.7307 30.6603 29.5943 30.2439Z" fill="#002337"/> <path d="M40.8241 24.8543H35.9168L37.7358 23.0353C38.0456 22.7255 38.0456 22.2232 37.7358 21.9133C37.426 21.6035 36.9237 21.6035 36.6138 21.9133L33.4406 25.0865C33.1308 25.3963 33.1308 25.8987 33.4406 26.2085L36.6138 29.3818C36.9236 29.6915 37.426 29.6915 37.7358 29.3818C38.0456 29.072 38.0456 28.5696 37.7358 28.2598L35.9168 26.4409H40.8241C41.2622 26.4409 41.6174 26.0857 41.6174 25.6476C41.6174 25.2094 41.2622 24.8543 40.8241 24.8543Z" fill="#002337"/> <path d="M9.1768 25.0866L6.00356 21.9134C5.69377 21.6036 5.19145 21.6036 4.88159 21.9134C4.57172 22.2232 4.5718 22.7255 4.88159 23.0354L6.70056 24.8543H1.79332C1.35517 24.8543 1.00001 25.2095 1.00001 25.6476C1.00001 26.0857 1.35517 26.4409 1.79332 26.4409H6.70056L4.88159 28.2599C4.5718 28.5697 4.5718 29.072 4.88159 29.3819C5.19137 29.6916 5.6937 29.6916 6.00356 29.3819L9.1768 26.2086C9.48658 25.8988 9.48658 25.3965 9.1768 25.0866Z" fill="#002337"/> </svg>