<svg xmlns="http://www.w3.org/2000/svg" width="79" height="79" viewBox="0 0 79 79" fill="none"> <circle opacity="0.3" cx="44.5" cy="41.5" r="28.5" fill="#00AB97"/> <path d="M39.5308 38.5181C39.3698 38.1888 39.3698 37.8112 39.5308 37.482L41.0226 34.43C41.8532 32.7308 41.1951 30.7054 39.5243 29.8189L36.5236 28.2267C36.1999 28.055 35.9779 27.7494 35.9145 27.3886L35.3277 24.0426C35.0009 22.1796 33.2776 20.9278 31.4052 21.1927L28.0417 21.6685C27.6787 21.7197 27.3197 21.603 27.0564 21.3482L24.6149 18.9864C23.2555 17.6712 21.1258 17.6712 19.7664 18.9864L17.3249 21.3485C17.0615 21.6033 16.7025 21.7198 16.3395 21.6687L12.9761 21.1929C11.103 20.9278 9.3804 22.1799 9.0536 24.0428L8.46673 27.3886C8.40338 27.7496 8.18143 28.0551 7.85776 28.2269L4.85701 29.8191C3.18625 30.7055 2.52813 32.731 3.35875 34.4303L4.85053 37.4821C5.01146 37.8114 5.01146 38.1891 4.85053 38.5183L3.35867 41.5701C2.52805 43.2694 3.18617 45.2948 4.85693 46.1812L7.85768 47.7734C8.18143 47.9451 8.40338 48.2507 8.46673 48.6116L9.0536 51.9576C9.3511 53.6535 10.8053 54.8428 12.4766 54.8427C12.6412 54.8427 12.8082 54.8311 12.9761 54.8074L16.3396 54.3316C16.7023 54.2801 17.0616 54.3971 17.325 54.6518L19.7664 57.0137C20.4463 57.6713 21.3183 58.0001 22.1906 58C23.0627 57.9999 23.9353 57.6712 24.6148 57.0137L27.0564 54.6518C27.3198 54.3971 27.6789 54.2807 28.0417 54.3316L31.4052 54.8074C33.2785 55.0724 35.0009 53.8204 35.3277 51.9575L35.9146 48.6117C35.978 48.2507 36.1999 47.9452 36.5236 47.7734L39.5243 46.1812C41.1951 45.2948 41.8532 43.2693 41.0226 41.57L39.5308 38.5181ZM38.443 44.1432L35.4423 45.7354C34.4856 46.2431 33.8294 47.1461 33.6423 48.2129L33.0554 51.5588C32.9449 52.1891 32.3622 52.6125 31.7283 52.523L28.3649 52.0473C27.2922 51.8953 26.2308 52.2405 25.4523 52.9936L23.0108 55.3553C22.5509 55.8002 21.8304 55.8002 21.3704 55.3553L18.929 52.9935C18.271 52.357 17.4109 52.0121 16.5129 52.0121C16.3484 52.0121 16.1825 52.0237 16.0164 52.0472L12.6529 52.5229C12.0197 52.6125 11.4365 52.189 11.3258 51.5587L10.7389 48.2128C10.5517 47.1459 9.89562 46.2429 8.93884 45.7353L5.93809 44.1431C5.37279 43.8432 5.15013 43.158 5.43114 42.5831L6.923 39.5311C7.39862 38.558 7.39862 37.442 6.923 36.4688L5.43114 33.4169C5.15013 32.842 5.37279 32.1568 5.93809 31.8569L8.93884 30.2647C9.89555 29.757 10.5517 28.854 10.7388 27.7871L11.3257 24.4412C11.4363 23.8109 12.019 23.3875 12.6528 23.477L16.0163 23.9528C17.0885 24.1046 18.1503 23.7595 18.9288 23.0065L21.3703 20.6446C21.8302 20.1998 22.5507 20.1998 23.0107 20.6446L25.4522 23.0065C26.2307 23.7596 27.2923 24.1046 28.3647 23.9528L31.7282 23.477C32.3615 23.3874 32.9447 23.8109 33.0553 24.4412L33.6421 27.7872C33.8293 28.8541 34.4854 29.7571 35.4422 30.2647L38.443 31.8569C39.0083 32.1568 39.2309 32.842 38.9499 33.4169L37.458 36.4688C36.9824 37.4418 36.9824 38.558 37.458 39.5311L38.9499 42.5829C39.231 43.158 39.0083 43.8433 38.443 44.1432Z" fill="#002337"/> <path d="M30.619 29.5716C30.1686 29.1211 29.4381 29.1211 28.9877 29.5716L13.7621 44.7972C13.3117 45.2476 13.3117 45.978 13.7621 46.4285C13.9874 46.6537 14.2826 46.7664 14.5778 46.7664C14.8729 46.7664 15.1682 46.6538 15.3934 46.4285L30.6189 31.203C31.0695 30.7524 31.0695 30.0221 30.619 29.5716Z" fill="#002337"/> <path d="M17.5766 27.6185C15.2444 27.6185 13.347 29.5159 13.347 31.848C13.347 34.1802 15.2444 36.0776 17.5766 36.0776C19.9087 36.0776 21.8061 34.1802 21.8061 31.848C21.8061 29.5159 19.9087 27.6185 17.5766 27.6185ZM17.5766 33.7705C16.5165 33.7705 15.6541 32.9081 15.6541 31.848C15.6541 30.7879 16.5165 29.9255 17.5766 29.9255C18.6366 29.9255 19.4991 30.7879 19.4991 31.848C19.499 32.9081 18.6366 33.7705 17.5766 33.7705Z" fill="#002337"/> <path d="M26.8046 39.9225C24.4724 39.9225 22.575 41.8199 22.575 44.1521C22.575 46.4843 24.4724 48.3817 26.8046 48.3817C29.1367 48.3817 31.0341 46.4843 31.0341 44.1521C31.0341 41.8199 29.1367 39.9225 26.8046 39.9225ZM26.8046 46.0746C25.7445 46.0746 24.882 45.2122 24.882 44.1521C24.882 43.092 25.7444 42.2296 26.8046 42.2296C27.8646 42.2296 28.7271 43.092 28.7271 44.1521C28.7271 45.2122 27.8646 46.0746 26.8046 46.0746Z" fill="#002337"/> </svg>