<svg xmlns="http://www.w3.org/2000/svg" width="79" height="79" viewBox="0 0 79 79" fill="none"> <circle opacity="0.3" cx="44.5" cy="41.5" r="28.5" fill="#00AB97"/> <path d="M32.9159 28.1289C32.7188 27.7096 32.1543 27.566 31.7384 27.7597C25.3334 30.771 22.1868 36.022 20.7571 41.4199C18.9884 29.9426 13.8727 26.4436 11.7032 24.9589C11.4326 24.7735 11.2222 24.6382 11.1053 24.523C10.7796 24.1973 10.2501 24.1973 9.92447 24.523C9.59879 24.8486 9.59879 25.3781 9.92447 25.7038C10.0898 25.8675 10.3754 26.0729 10.7612 26.3368C13.2063 28.0086 19.7015 32.4529 19.7015 50.1649C19.7015 50.6259 20.0757 51 20.5366 51C20.9976 51 21.3717 50.6259 21.3717 50.1666C21.3717 43.01 23.2941 33.5753 32.4499 29.273C32.4499 29.2713 32.5852 29.2078 32.5852 29.2078C33.001 29.0107 33.1129 28.5464 32.9159 28.1289Z" fill="#002337"/> <path d="M38.9467 20.9004C34.4958 20.9004 28.2077 21.2712 24.9942 24.4845C22.1617 27.3154 22.6009 33.2929 24.9942 35.6863C26.2418 36.9322 28.4598 37.6487 30.6995 37.6487C32.7605 37.6487 34.8382 37.0441 36.1976 35.688C39.4093 32.4746 39.7818 26.1865 39.7818 21.7355C39.7818 21.2745 39.4077 20.9004 38.9467 20.9004ZM35.0135 34.5055C32.9225 36.5965 27.9588 36.2908 26.1734 34.5055C24.388 32.7201 24.0824 27.7564 26.1734 25.6653C28.7672 23.0716 34.0365 22.6223 38.105 22.5739C38.0566 26.644 37.6073 31.9134 35.0135 34.5055Z" fill="#002337"/> <path d="M17.7875 21.181C14.5742 17.9693 8.28604 17.5969 3.8351 17.5969C3.37414 17.5969 3 17.9709 3 18.4319C3 22.8828 3.37077 29.171 6.58413 32.3844C7.94032 33.7406 10.0197 34.3469 12.0806 34.3469C14.3203 34.3469 16.5399 33.6304 17.7875 32.3828C20.1809 29.9894 20.6202 24.0119 17.7875 21.181ZM16.6068 31.2036C14.8197 32.9889 9.85769 33.2946 7.76668 31.2036C5.1729 28.6099 4.7236 23.3405 4.67514 19.272C8.74364 19.3205 14.013 19.7697 16.6067 22.3635C18.6978 24.4545 18.3922 29.4182 16.6068 31.2036Z" fill="#002337"/> </svg>