<svg xmlns="http://www.w3.org/2000/svg" width="79" height="79" viewBox="0 0 79 79" fill="none"> <circle opacity="0.3" cx="44.5" cy="41.5" r="28.5" fill="#00AB97"/> <path d="M19.1642 11.2481C17.2574 11.043 14.9031 11 13.2638 11C11.7521 11 10.6742 11.035 10.6291 11.0364C10.1307 11.0527 9.73527 11.4615 9.73527 11.9601V15.5705C9.73527 16.058 10.1129 16.4564 10.5915 16.4913V17.2692H10.2312C9.75684 17.2692 9.35965 17.6283 9.31172 18.1001L8.77195 23.416C7.83661 23.7179 7.02659 24.1105 6.40302 24.5825C5.8529 24.9277 5.42602 25.4478 5.19582 26.0544C5.06581 26.3693 5 26.6924 5 27.0151V52.0119C5 53.6596 6.34042 55 7.98794 55H19.0147C20.6623 55 22.0027 53.6596 22.0027 52.0119V27.0151C22.0027 26.6925 21.9369 26.3694 21.8069 26.0544C21.5767 25.4478 21.1497 24.9277 20.5996 24.5825C19.976 24.1106 19.166 23.7179 18.2308 23.4161L17.691 18.1003C17.6431 17.6284 17.2459 17.2693 16.7716 17.2693H16.4112V16.4949C16.4112 16.4949 16.7696 16.464 16.8942 16.4044C18.2058 15.7772 21.2483 15.5927 22.31 15.5746C22.8141 15.5659 23.2186 15.1547 23.2186 14.6504V13.3132C23.2188 11.8815 21.2701 11.4746 19.1642 11.2481ZM20.1544 27.0151V52.0119C20.1544 52.6403 19.6432 53.1515 19.0148 53.1515H7.98806C7.35969 53.1515 6.84864 52.6403 6.84864 52.0119V27.0151C6.84864 26.9327 7.3815 24.579 13.5014 24.579C18.9894 24.579 20.1544 26.9328 20.1544 27.0151ZM13.5014 22.7305C12.5178 22.7305 11.5663 22.8109 10.6763 22.9595L11.0663 19.1177H15.9365L16.3266 22.9595C15.4367 22.8109 14.4852 22.7305 13.5014 22.7305ZM14.563 17.2692H12.44V16.4948H14.563V17.2692ZM21.3703 13.7602C20.0739 13.8297 17.7449 14.0364 16.2985 14.6463H11.5838V12.8632C14.6221 12.5932 20.7672 13.2717 21.3703 13.5713V13.7602V13.7602Z" fill="#002337"/> <path d="M9.07984 28.9716C8.56941 28.9716 8.15559 29.3854 8.15559 29.8958V44.6084C8.15559 45.1188 8.56941 45.5327 9.07984 45.5327H17.9234C18.4339 45.5327 18.8476 45.1188 18.8476 44.6084V29.8958C18.8476 29.3854 18.4339 28.9716 17.9234 28.9716H9.07984ZM16.999 43.6841H10.004V30.8201H16.999V43.6841Z" fill="#002337"/> </svg>